<svg width="48" height="48" viewBox="0 0 48 48" fill="none" xmlns="http://www.w3.org/2000/svg">
<path fill-rule="evenodd" clip-rule="evenodd" d="M21.1591 0.0995218C14.1724 0.888158 7.55571 5.0715 3.71386 11.129C1.00847 15.3947 -0.253011 20.3076 0.0420441 25.4296C0.618199 35.4312 7.43694 44.0692 17.0515 46.9772C23.0708 48.7978 29.6714 48.1677 35.1646 45.2481C45.541 39.7332 50.4665 27.5329 46.7874 16.4593C45.9114 13.8227 44.7838 11.6935 42.9944 9.29724C42.2182 8.25784 40.2505 6.25326 39.0743 5.30353C35.5359 2.4468 31.0556 0.569038 26.6316 0.0886234C25.4992 -0.0344276 22.2887 -0.0279877 21.1591 0.0995218ZM27.1968 1.85899C29.6665 2.22289 31.5415 2.8116 33.8284 3.94095C40.0034 6.99068 44.4186 12.646 45.8402 19.3265C46.1832 20.939 46.2915 22.0791 46.2895 24.0594C46.2866 26.966 45.8071 29.5501 44.801 32.0819C41.4694 40.4655 33.8063 45.9179 24.796 46.3161C17.1214 46.6551 9.58577 42.7535 5.34631 36.2456C3.38743 33.2386 2.28114 30.2417 1.79852 26.6354C1.61561 25.2685 1.64352 22.3778 1.85355 20.9385C2.21987 18.4281 2.94301 16.1249 4.05405 13.9298C7.38478 7.34933 13.591 2.90443 20.9612 1.82075C22.3761 1.61269 25.6622 1.6329 27.1968 1.85899ZM9.83371 14.3093C9.58349 14.5201 9.52915 14.6394 9.52915 14.9779V15.3899L16.5841 22.4492C23.5488 29.4183 23.644 29.5085 24.0309 29.5085C24.4179 29.5085 24.5125 29.4188 31.4269 22.498L38.4309 15.4874V15.0762C38.4309 14.7385 38.3764 14.619 38.1264 14.4084C37.9401 14.2515 37.7011 14.1519 37.5107 14.1519C37.1857 14.1519 36.4025 14.9125 26.9712 24.3883C25.5166 25.8498 24.2473 27.0892 24.1505 27.1426C24.0013 27.2249 23.0028 26.266 17.6179 20.8692C14.1218 17.3654 11.1301 14.3984 10.9699 14.2758C10.5867 13.9827 10.2082 13.9939 9.83371 14.3093ZM9.81847 22.2684C9.60002 22.4872 9.52915 22.6505 9.52915 22.9354C9.52915 23.303 9.71325 23.4972 16.5819 30.3736C23.5614 37.3613 23.6387 37.4345 24.0292 37.4345C24.4197 37.4345 24.4972 37.3611 31.4274 30.4242C38.2543 23.5907 38.4309 23.4043 38.4309 23.0355C38.4309 22.5334 38.0002 22.0779 37.5255 22.0779C37.225 22.0779 36.6702 22.6065 30.6511 28.6269C24.9395 34.3396 24.0798 35.1627 23.9181 35.0732C23.816 35.0166 20.9043 32.1328 17.4474 28.6648C13.9906 25.1967 11.0561 22.2736 10.9262 22.1691C10.5781 21.8885 10.1606 21.926 9.81847 22.2684Z" fill="#49FF06"/>
</svg>
